<?xml version="1.0" encoding="utf-8"?>
<COLLADA xmlns="http://www.collada.org/2005/11/COLLADASchema" version="1.4.1" xmlns:xsi="http://www.w3.org/2001/XMLSchema-instance">
  <asset>
    <contributor>
      <author>Blender User</author>
      <authoring_tool>Blender 4.4.3 commit date:2025-04-29, commit time:14:09, hash:802179c51ccc</authoring_tool>
    </contributor>
    <created>2025-06-04T14:34:09</created>
    <modified>2025-06-04T14:34:09</modified>
    <unit name="meter" meter="1"/>
    <up_axis>Z_UP</up_axis>
  </asset>
  <library_cameras>
    <camera id="Camera-camera" name="Camera">
      <optics>
        <technique_common>
          <perspective>
            <xfov sid="xfov">39.59775</xfov>
            <aspect_ratio>1.777778</aspect_ratio>
            <znear sid="znear">0.1</znear>
            <zfar sid="zfar">100</zfar>
          </perspective>
        </technique_common>
      </optics>
      <extra>
        <technique profile="blender">
          <shiftx sid="shiftx" type="float">0</shiftx>
          <shifty sid="shifty" type="float">0</shifty>
          <dof_distance sid="dof_distance" type="float">10</dof_distance>
        </technique>
      </extra>
    </camera>
  </library_cameras>
  <library_lights>
    <light id="Light-light" name="Light">
      <technique_common>
        <point>
          <color sid="color">1000 1000 1000</color>
          <constant_attenuation>1</constant_attenuation>
          <linear_attenuation>0</linear_attenuation>
          <quadratic_attenuation>0</quadratic_attenuation>
        </point>
      </technique_common>
      <extra>
        <technique profile="blender">
          <type sid="type" type="int">0</type>
          <flag sid="flag" type="int">0</flag>
          <mode sid="mode" type="int">2097153</mode>
          <red sid="red" type="float">1</red>
          <green sid="green" type="float">1</green>
          <blue sid="blue" type="float">1</blue>
          <energy sid="blender_energy" type="float">1000</energy>
          <spotsize sid="spotsize" type="float">75</spotsize>
          <spotblend sid="spotblend" type="float">0.15</spotblend>
          <clipsta sid="clipsta" type="float">0.04999995</clipsta>
          <clipend sid="clipend" type="float">40</clipend>
          <radius sid="radius" type="float">0.1</radius>
          <area_shape sid="area_shape" type="int">1</area_shape>
          <area_size sid="area_size" type="float">0.1</area_size>
          <area_sizey sid="area_sizey" type="float">0.1</area_sizey>
          <area_sizez sid="area_sizez" type="float">1</area_sizez>
        </technique>
      </extra>
    </light>
  </library_lights>
  <library_images/>
  <library_geometries>
    <geometry id="SimplifiedModel-mesh" name="SimplifiedModel">
      <mesh>
        <source id="SimplifiedModel-mesh-positions">
          <float_array id="SimplifiedModel-mesh-positions-array" count="1479">132.5 504 0 146.35 554 0.7258489 146.35 504 0.7258489 160.0483 554 2.895443 160.0483 504 2.895443 173.4447 554 6.485012 173.4447 504 6.485012 186.3926 554 11.45523 186.3926 504 11.45523 198.75 554 17.75164 198.75 504 17.75164 210.3815 554 25.30525 210.3815 504 25.30525 221.1598 554 34.03331 221.1598 504 34.03331 230.9667 554 43.84019 230.9667 504 43.84019 239.6947 554 54.61845 239.6947 504 54.61845 247.2483 554 66.25 247.2483 504 66.25 253.5448 554 78.6074 253.5448 504 78.6074 258.515 554 91.55525 258.515 504 91.55525 262.1046 554 104.9517 262.1046 504 104.9517 264.2742 554 118.65 264.2742 504 118.65 265 554 132.5 265 504 132.5 264.2742 554 146.35 264.2742 504 146.35 262.1046 554 160.0483 262.1046 504 160.0483 258.515 554 173.4447 258.515 504 173.4447 253.5448 554 186.3926 253.5448 504 186.3926 247.2483 554 198.75 247.2483 504 198.75 239.6947 554 210.3815 239.6947 504 210.3815 230.9667 554 221.1598 230.9667 504 221.1598 221.1598 554 230.9667 221.1598 504 230.9667 210.3815 554 239.6947 210.3815 504 239.6947 198.75 554 247.2484 198.75 504 247.2484 186.3926 554 253.5448 186.3926 504 253.5448 173.4447 554 258.515 173.4447 504 258.515 160.0483 554 262.1046 160.0483 504 262.1046 146.35 554 264.2742 146.35 504 264.2742 132.5 554 265 132.5 504 265 118.65 554 264.2742 118.65 504 264.2742 104.9517 554 262.1046 104.9517 504 262.1046 91.55525 554 258.515 91.55525 504 258.515 78.60739 554 253.5448 78.60739 504 253.5448 66.25 554 247.2484 66.25 504 247.2484 54.61845 554 239.6947 54.61845 504 239.6947 43.84018 554 230.9667 43.84018 504 230.9667 34.0333 554 221.1598 34.0333 504 221.1598 25.30524 554 210.3815 25.30524 504 210.3815 17.75163 554 198.75 17.75163 504 198.75 11.45522 554 186.3926 11.45522 504 186.3926 6.485 554 173.4447 6.485 504 173.4447 2.89543 554 160.0483 2.89543 504 160.0483 0.7258356 554 146.35 0.7258356 504 146.35 0 554 132.5 0 504 132.5 0.7258356 554 118.65 0.7258356 504 118.65 2.89543 554 104.9517 2.89543 504 104.9517 6.485 554 91.55525 6.485 504 91.55525 11.45522 554 78.6074 11.45522 504 78.6074 17.75163 554 66.25 17.75163 504 66.25 25.30524 554 54.61845 25.30524 504 54.61845 34.0333 554 43.84019 34.0333 504 43.84019 43.84018 554 34.03331 43.84018 504 34.03331 54.61845 554 25.30525 54.61845 504 25.30525 66.25 554 17.75164 66.25 504 17.75164 78.60739 554 11.45523 78.60739 504 11.45523 91.55525 554 6.485012 91.55525 504 6.485012 104.9517 554 2.895443 104.9517 504 2.895443 118.65 554 0.7258489 118.65 504 0.7258489 132.5 554 0 132.5 554 132.5 132.5 504 132.5 732.5 504 0 746.35 554 0.7258489 746.35 504 0.7258489 760.0483 554 2.895443 760.0483 504 2.895443 773.4448 554 6.485012 773.4448 504 6.485012 786.3926 554 11.45523 786.3926 504 11.45523 798.75 554 17.75164 798.75 504 17.75164 810.3815 554 25.30525 810.3815 504 25.30525 821.1598 554 34.03331 821.1598 504 34.03331 830.9667 554 43.84019 830.9667 504 43.84019 839.6948 554 54.61845 839.6948 504 54.61845 847.2484 554 66.25 847.2484 504 66.25 853.5448 554 78.6074 853.5448 504 78.6074 858.515 554 91.55525 858.515 504 91.55525 862.1046 554 104.9517 862.1046 504 104.9517 864.2742 554 118.65 864.2742 504 118.65 865 554 132.5 865 504 132.5 864.2742 554 146.35 864.2742 504 146.35 862.1046 554 160.0483 862.1046 504 160.0483 858.515 554 173.4447 858.515 504 173.4447 853.5448 554 186.3926 853.5448 504 186.3926 847.2484 554 198.75 847.2484 504 198.75 839.6948 554 210.3815 839.6948 504 210.3815 830.9667 554 221.1598 830.9667 504 221.1598 821.1598 554 230.9667 821.1598 504 230.9667 810.3815 554 239.6947 810.3815 504 239.6947 798.75 554 247.2484 798.75 504 247.2484 786.3926 554 253.5448 786.3926 504 253.5448 773.4448 554 258.515 773.4448 504 258.515 760.0483 554 262.1046 760.0483 504 262.1046 746.35 554 264.2742 746.35 504 264.2742 732.5 554 265 732.5 504 265 718.65 554 264.2742 718.65 504 264.2742 704.9517 554 262.1046 704.9517 504 262.1046 691.5552 554 258.515 691.5552 504 258.515 678.6074 554 253.5448 678.6074 504 253.5448 666.25 554 247.2484 666.25 504 247.2484 654.6185 554 239.6947 654.6185 504 239.6947 643.8402 554 230.9667 643.8402 504 230.9667 634.0333 554 221.1598 634.0333 504 221.1598 625.3052 554 210.3815 625.3052 504 210.3815 617.7517 554 198.75 617.7517 504 198.75 611.4553 554 186.3926 611.4553 504 186.3926 606.485 554 173.4447 606.485 504 173.4447 602.8955 554 160.0483 602.8955 504 160.0483 600.7258 554 146.35 600.7258 504 146.35 600 554 132.5 600 504 132.5 600.7258 554 118.65 600.7258 504 118.65 602.8955 554 104.9517 602.8955 504 104.9517 606.485 554 91.55525 606.485 504 91.55525 611.4553 554 78.6074 611.4553 504 78.6074 617.7517 554 66.25 617.7517 504 66.25 625.3052 554 54.61845 625.3052 504 54.61845 634.0333 554 43.84019 634.0333 504 43.84019 643.8402 554 34.03331 643.8402 504 34.03331 654.6185 554 25.30525 654.6185 504 25.30525 666.25 554 17.75164 666.25 504 17.75164 678.6074 554 11.45523 678.6074 504 11.45523 691.5552 554 6.485012 691.5552 504 6.485012 704.9517 554 2.895443 704.9517 504 2.895443 718.65 554 0.7258489 718.65 504 0.7258489 732.5 554 0 732.5 554 132.5 732.5 504 132.5 265 50.00001 132.5 2.499998 50.00001 132.5 2.499998 552 132.5 862.5 552 132.5 862.5 50.00001 132.5 600 50.00001 132.5 600 2.000004 132.5 265 2.000004 132.5 862.5 50.00001 158.1174 862.5 552 469.7 862.5 2.000004 158.1174 862.5 2.000004 469.7 2.499998 2.000004 158.1174 2.499998 2.000004 469.7 2.499998 50.00001 158.1174 2.499998 552 469.7 342.5 297 469.7 302.5 297 469.7 302.5 257 469.7 342.5 257 469.7 857.0093 2.000004 177.8177 17.75163 2.000004 198.75 7.990718 2.000004 177.8177 30.9991 2.000004 217.6694 47.33063 2.000004 234.0009 66.25 2.000004 247.2484 630.9992 2.000004 217.6694 647.3306 2.000004 234.0009 732.5 2.000004 265 755.5084 2.000004 262.987 817.6693 2.000004 234.0009 834.0009 2.000004 217.6694 847.2484 2.000004 198.75 87.18233 2.000004 257.0093 109.4916 2.000004 262.987 132.5 2.000004 265 217.6694 2.000004 234.0009 234.0009 2.000004 217.6694 666.25 2.000004 247.2484 687.1823 2.000004 257.0093 709.4916 2.000004 262.987 777.8177 2.000004 257.0093 798.75 2.000004 247.2484 155.5084 2.000004 262.987 177.8177 2.000004 257.0093 198.75 2.000004 247.2484 262.987 2.000004 155.5084 602.013 2.000004 155.5084 247.2483 2.000004 198.75 257.0093 2.000004 177.8177 607.9907 2.000004 177.8177 617.7517 2.000004 198.75 342.5 257 785.7 342.5 257 803.2 302.5 257 803.2 342.5 257 755.7 442.5 257 755.7 442.5 257 785.7 342.5 297 755.7 442.5 297 755.7 442.5 297 785.7 342.5 297 785.7 302.5 297 803.2 342.5 297 803.2 369.4846 259.899 878.2 371.7404 268.3176 878.2 322.5 277 878.2 372.5 277 878.2 371.7404 285.6824 878.2 354.6394 238.6978 878.2 360.8022 244.8606 878.2 365.8013 252 878.2 331.1824 227.7596 878.2 339.601 230.0154 878.2 347.5 233.6987 878.2 305.399 230.0154 878.2 313.8176 227.7596 878.2 322.5 227 878.2 284.1978 244.8606 878.2 290.3606 238.6978 878.2 297.5 233.6987 878.2 273.2596 268.3176 878.2 275.5154 259.899 878.2 279.1987 252 878.2 275.5154 294.101 878.2 273.2596 285.6824 878.2 272.5 277 878.2 290.3606 315.3022 878.2 284.1978 309.1394 878.2 279.1987 302 878.2 313.8176 326.2404 878.2 305.399 323.9847 878.2 297.5 320.3013 878.2 339.601 323.9847 878.2 331.1824 326.2404 878.2 322.5 327 878.2 360.8022 309.1394 878.2 354.6394 315.3022 878.2 347.5 320.3013 878.2 369.4846 294.101 878.2 365.8013 302 878.2 284.1978 244.8606 803.2 279.1987 252 803.2 313.8176 227.7596 803.2 305.399 230.0154 803.2 365.8013 252 803.2 360.8022 244.8606 803.2 354.6394 238.6978 803.2 347.5 233.6987 803.2 297.5 233.6987 803.2 290.3606 238.6978 803.2 275.5154 259.899 803.2 273.2596 268.3176 803.2 272.5 277 803.2 297.5 320.3013 803.2 305.399 323.9847 803.2 339.601 323.9847 803.2 347.5 320.3013 803.2 354.6394 315.3022 803.2 360.8022 309.1394 803.2 339.601 230.0154 803.2 331.1824 227.7596 803.2 322.5 227 803.2 365.8013 302 803.2 369.4846 294.101 803.2 371.7404 285.6824 803.2 372.5 277 803.2 371.7404 268.3176 803.2 369.4846 259.899 803.2 313.8176 326.2404 803.2 322.5 327 803.2 331.1824 326.2404 803.2 273.2596 285.6824 803.2 275.5154 294.101 803.2 279.1987 302 803.2 284.1978 309.1394 803.2 290.3606 315.3022 803.2 2.012968 50.00001 155.5084 257.0093 50.00001 87.18233 66.25 50.00001 17.75164 262.987 50.00001 109.4916 47.33063 50.00001 30.99911 30.9991 50.00001 47.33064 17.75163 50.00001 66.25 109.4916 50.00001 2.012973 177.8177 50.00001 7.990728 132.5 50.00001 0 155.5084 50.00001 2.012973 7.990718 50.00001 87.18233 2.012968 50.00001 109.4916 0 50.00001 132.5 247.2483 50.00001 66.25 234.0009 50.00001 47.33064 217.6694 50.00001 30.99911 87.18233 50.00001 7.990728 198.75 50.00001 17.75164 2.012968 0 155.5084 7.990718 0 177.8177 17.75163 0 198.75 30.9991 0 217.6694 47.33063 0 234.0009 66.25 0 247.2484 87.18233 0 257.0093 109.4916 0 262.987 132.5 0 265 155.5084 0 262.987 177.8177 0 257.0093 198.75 0 247.2484 217.6694 0 234.0009 234.0009 0 217.6694 247.2483 0 198.75 257.0093 0 177.8177 262.987 0 155.5084 265 0 132.5 262.987 0 109.4916 257.0093 0 87.18233 247.2483 0 66.25 234.0009 0 47.33064 217.6694 0 30.99911 198.75 0 17.75164 177.8177 0 7.990728 155.5084 0 2.012973 132.5 0 0 109.4916 0 2.012973 87.18233 0 7.990728 66.25 0 17.75164 47.33063 0 30.99911 30.9991 0 47.33064 17.75163 0 66.25 7.990718 0 87.18233 2.012968 0 109.4916 0 0 132.5 132.5 0 132.5 862.9871 50.00001 155.5084 857.0093 50.00001 87.18233 862.9871 50.00001 109.4916 865 50.00001 132.5 630.9992 50.00001 47.33064 617.7517 50.00001 66.25 777.8177 50.00001 7.990728 607.9907 50.00001 87.18233 847.2484 50.00001 66.25 834.0009 50.00001 47.33064 817.6693 50.00001 30.99911 798.75 50.00001 17.75164 602.013 50.00001 109.4916 647.3306 50.00001 30.99911 755.5084 50.00001 2.012973 732.5 50.00001 0 709.4916 50.00001 2.012973 687.1823 50.00001 7.990728 666.25 50.00001 17.75164 862.9871 0 155.5084 857.0093 0 177.8177 847.2484 0 198.75 834.0009 0 217.6694 817.6693 0 234.0009 798.75 0 247.2484 777.8177 0 257.0093 755.5084 0 262.987 732.5 0 265 709.4916 0 262.987 687.1823 0 257.0093 666.25 0 247.2484 647.3306 0 234.0009 630.9992 0 217.6694 617.7517 0 198.75 607.9907 0 177.8177 602.013 0 155.5084 600 0 132.5 602.013 0 109.4916 865 0 132.5 862.9871 0 109.4916 857.0093 0 87.18233 847.2484 0 66.25 834.0009 0 47.33064 817.6693 0 30.99911 798.75 0 17.75164 777.8177 0 7.990728 755.5084 0 2.012973 732.5 0 0 709.4916 0 2.012973 687.1823 0 7.990728 666.25 0 17.75164 647.3306 0 30.99911 630.9992 0 47.33064 617.7517 0 66.25 607.9907 0 87.18233 732.5 0 132.5</float_array>
          <technique_common>
            <accessor source="#SimplifiedModel-mesh-positions-array" count="493" stride="3">
              <param name="X" type="float"/>
              <param name="Y" type="float"/>
              <param name="Z" type="float"/>
            </accessor>
          </technique_common>
        </source>
        <source id="SimplifiedModel-mesh-normals">
          <float_array id="SimplifiedModel-mesh-normals-array" count="2922">0.05233591 0 -0.9986295 0.1564345 0 -0.9876884 0.1564345 0 -0.9876884 0.258819 0 -0.9659258 0.258819 0 -0.9659258 0.3583682 0 -0.9335803 0.3583682 0 -0.9335803 0.4539906 0 -0.8910064 0.4539906 0 -0.8910064 0.5446391 0 -0.8386706 0.5446391 0 -0.8386706 0.6293199 0 -0.7771464 0.6293199 0 -0.7771464 0.7071074 0 -0.7071062 0.7071074 0 -0.7071062 0.7771456 0 -0.6293209 0.7771456 0 -0.6293209 0.8386709 0 -0.5446386 0.8386709 0 -0.5446386 0.8910062 0 -0.4539909 0.8910062 0 -0.4539909 0.9335803 0 -0.3583681 0.9335803 0 -0.3583681 0.9659258 0 -0.2588191 0.9659258 0 -0.2588191 0.9876884 0 -0.1564338 0.9876884 0 -0.1564338 0.9986295 0 -0.05233675 0.9986295 0 -0.05233675 0.9986295 0 0.05233675 0.9986295 0 0.05233675 0.9876884 0 0.1564338 0.9876884 0 0.1564338 0.9659258 0 0.2588194 0.9659258 0 0.2588194 0.9335805 0 0.3583678 0.9335805 0 0.3583678 0.8910061 0 0.4539911 0.8910061 0 0.4539911 0.8386709 0 0.5446386 0.8386709 0 0.5446386 0.7771456 0 0.6293209 0.7771456 0 0.6293209 0.7071074 0 0.7071062 0.7071074 0 0.7071062 0.6293197 0 0.7771465 0.6293197 0 0.7771465 0.5446393 0 0.8386704 0.5446393 0 0.8386704 0.4539911 0 0.8910061 0.4539911 0 0.8910061 0.3583691 0 0.9335801 0.3583691 0 0.9335801 0.2588191 0 0.9659258 0.2588191 0 0.9659258 0.1564318 0 0.9876888 0.1564318 0 0.9876888 0.05233675 0 0.9986295 0.05233675 0 0.9986295 -0.05233675 0 0.9986295 -0.05233675 0 0.9986295 -0.1564318 0 0.9876888 -0.1564318 0 0.9876888 -0.2588191 0 0.9659258 -0.2588191 0 0.9659258 -0.3583689 0 0.9335801 -0.3583689 0 0.9335801 -0.4539911 0 0.8910061 -0.4539911 0 0.8910061 -0.5446391 0 0.8386706 -0.5446391 0 0.8386706 -0.6293201 0 0.7771462 -0.6293201 0 0.7771462 -0.7071071 0 0.7071065 -0.7071071 0 0.7071065 -0.7771458 0 0.6293205 -0.7771458 0 0.6293205 -0.8386706 0 0.5446391 -0.8386706 0 0.5446391 -0.8910066 0 0.4539904 -0.8910066 0 0.4539904 -0.9335803 0 0.3583683 -0.9335803 0 0.3583683 -0.9659257 0 0.2588194 -0.9659257 0 0.2588194 -0.9876884 0 0.1564343 -0.9876884 0 0.1564343 -0.9986296 0 0.05233496 -0.9986296 0 0.05233496 -0.9986296 0 -0.05233496 -0.9986296 0 -0.05233496 -0.9876884 0 -0.1564344 -0.9876884 0 -0.1564344 -0.9659258 0 -0.2588192 -0.9659258 0 -0.2588192 -0.9335802 0 -0.3583686 -0.9335802 0 -0.3583686 -0.8910067 0 -0.4539902 -0.8910067 0 -0.4539902 -0.8386706 0 -0.5446391 -0.8386706 0 -0.5446391 -0.7771458 0 -0.6293205 -0.7771458 0 -0.6293205 -0.7071071 0 -0.7071065 -0.7071071 0 -0.7071065 -0.6293202 0 -0.7771461 -0.6293202 0 -0.7771461 -0.5446388 0 -0.8386708 -0.5446388 0 -0.8386708 -0.4539906 0 -0.8910064 -0.4539906 0 -0.8910064 -0.358368 0 -0.9335805 -0.358368 0 -0.9335805 -0.258819 0 -0.9659258 -0.258819 0 -0.9659258 -0.1564345 0 -0.9876884 -0.1564345 0 -0.9876884 -0.05233591 0 -0.9986295 -0.05233591 0 -0.9986295 0.05233591 0 -0.9986295 0 1 0 0 1 0 0 1 0 0 1 0 0 1 0 0 1 0 0 1 0 0 1 0 0 1 0 0 1 0 0 1 0 0 1 0 0 1 0 0 1 0 0 1 0 0 1 0 0 1 0 0 1 0 0 1 0 0 1 0 0 1 0 0 1 0 0 1 0 0 1 0 0 1 0 0 1 0 0 1 0 0 1 0 0 1 0 0 1 0 0 1 0 0 1 0 0 1 0 0 1 0 0 1 0 0 1 0 0 1 0 0 1 0 0 1 0 0 1 0 0 1 0 0 1 0 0 1 0 0 1 0 0 1 0 0 1 0 0 1 0 0 1 0 0 1 0 0 1 0 0 1 0 0 1 0 0 1 0 0 1 0 0 1 0 0 1 0 0 1 0 0 1 0 0 1 0 0 1 0 0 -1 0 0 -1 0 0 -1 0 0 -1 0 0 -1 0 0 -1 0 0 -1 0 0 -1 0 0 -1 0 0 -1 0 0 -1 0 0 -1 0 0 -1 0 0 -1 0 0 -1 0 0 -1 0 0 -1 0 0 -1 0 0 -1 0 0 -1 0 0 -1 0 0 -1 0 0 -1 0 0 -1 0 0 -1 0 0 -1 0 0 -1 0 0 -1 0 0 -1 0 0 -1 0 0 -1 0 0 -1 0 0 -1 0 0 -1 0 0 -1 0 0 -1 0 0 -1 0 0 -1 0 0 -1 0 0 -1 0 0 -1 0 0 -1 0 0 -1 0 0 -1 0 0 -1 0 0 -1 0 0 -1 0 0 -1 0 0 -1 0 0 -1 0 0 -1 0 0 -1 0 0 -1 0 0 -1 0 0 -1 0 0 -1 0 0 -1 0 0 -1 0 0 -1 0 0 -1 0 0.05233609 0 -0.9986295 0.1564341 0 -0.9876884 0.1564341 0 -0.9876884 0.2588185 0 -0.965926 0.2588185 0 -0.965926 0.3583689 0 -0.9335801 0.3583689 0 -0.9335801 0.4539897 0 -0.8910069 0.4539897 0 -0.8910069 0.5446395 0 -0.8386702 0.5446395 0 -0.8386702 0.6293204 0 -0.7771461 0.6293204 0 -0.7771461 0.7071046 0 -0.707109 0.7071046 0 -0.707109 0.7771472 0 -0.6293189 0.7771472 0 -0.6293189 0.8386715 0 -0.5446378 0.8386715 0 -0.5446378 0.8910054 0 -0.4539927 0.8910054 0 -0.4539927 0.9335818 0 -0.3583643 0.9335818 0 -0.3583643 0.9659253 0 -0.2588211 0.9659253 0 -0.2588211 0.9876881 0 -0.156436 0.9876881 0 -0.156436 0.9986296 0 -0.0523346 0.9986296 0 -0.0523346 0.9986296 0 0.0523346 0.9986296 0 0.0523346 0.9876881 0 0.1564359 0.9876881 0 0.1564359 0.9659252 0 0.2588214 0.9659252 0 0.2588214 0.933582 0 0.3583639 0.933582 0 0.3583639 0.8910053 0 0.4539929 0.8910053 0 0.4539929 0.8386715 0 0.5446378 0.8386715 0 0.5446378 0.7771472 0 0.6293189 0.7771472 0 0.6293189 0.7071046 0 0.707109 0.7071046 0 0.707109 0.6293202 0 0.7771461 0.6293202 0 0.7771461 0.5446398 0 0.8386701 0.5446398 0 0.8386701 0.4539903 0 0.8910066 0.4539903 0 0.8910066 0.3583698 0 0.9335797 0.3583698 0 0.9335797 0.2588185 0 0.965926 0.2588185 0 0.965926 0.1564314 0 0.9876888 0.1564314 0 0.9876888 0.05233693 0 0.9986295 0.05233693 0 0.9986295 -0.05233669 0 0.9986295 -0.05233669 0 0.9986295 -0.1564321 0 0.9876887 -0.1564321 0 0.9876887 -0.2588185 0 0.965926 -0.2588185 0 0.965926 -0.3583698 0 0.9335797 -0.3583698 0 0.9335797 -0.4539903 0 0.8910066 -0.4539903 0 0.8910066 -0.5446398 0 0.8386701 -0.5446398 0 0.8386701 -0.6293202 0 0.7771461 -0.6293202 0 0.7771461 -0.7071068 0 0.7071068 -0.7071068 0 0.7071068 -0.7771451 0 0.6293216 -0.7771451 0 0.6293216 -0.8386715 0 0.5446378 -0.8386715 0 0.5446378 -0.8910071 0 0.4539894 -0.8910071 0 0.4539894 -0.933579 0 0.3583716 -0.933579 0 0.3583716 -0.9659263 0 0.2588173 -0.9659263 0 0.2588173 -0.9876881 0 0.1564359 -0.9876881 0 0.1564359 -0.9986296 0 0.0523346 -0.9986296 0 0.0523346 -0.9986296 0 -0.0523346 -0.9986296 0 -0.0523346 -0.9876881 0 -0.156436 -0.9876881 0 -0.156436 -0.9659264 0 -0.258817 -0.9659264 0 -0.258817 -0.9335789 0 -0.3583719 -0.9335789 0 -0.3583719 -0.8910072 0 -0.4539892 -0.8910072 0 -0.4539892 -0.8386715 0 -0.5446378 -0.8386715 0 -0.5446378 -0.7771451 0 -0.6293216 -0.7771451 0 -0.6293216 -0.7071068 0 -0.7071068 -0.7071068 0 -0.7071068 -0.6293204 0 -0.7771461 -0.6293204 0 -0.7771461 -0.5446395 0 -0.8386702 -0.5446395 0 -0.8386702 -0.4539897 0 -0.8910069 -0.4539897 0 -0.8910069 -0.3583689 0 -0.9335801 -0.3583689 0 -0.9335801 -0.2588185 0 -0.965926 -0.2588185 0 -0.965926 -0.1564348 0 -0.9876883 -0.1564348 0 -0.9876883 -0.05233585 0 -0.9986295 -0.05233585 0 -0.9986295 0.05233609 0 -0.9986295 0 1 0 0 1 0 0 1 0 0 1 0 0 1 0 0 1 0 0 1 0 0 1 0 0 1 0 0 1 0 0 1 0 0 1 0 0 1 0 0 1 0 0 1 0 0 1 0 0 1 0 0 1 0 0 1 0 0 1 0 0 1 0 0 1 0 0 1 0 0 1 0 0 1 0 0 1 0 0 1 0 0 1 0 0 1 0 0 1 0 0 1 0 0 1 0 0 1 0 0 1 0 0 1 0 0 1 0 0 1 0 0 1 0 0 1 0 0 1 0 0 1 0 0 1 0 0 1 0 0 1 0 0 1 0 0 1 0 0 1 0 0 1 0 0 1 0 0 1 0 0 1 0 0 1 0 0 1 0 0 1 0 0 1 0 0 1 0 0 1 0 0 1 0 0 1 0 0 1 0 0 -1 0 0 -1 0 0 -1 0 0 -1 0 0 -1 0 0 -1 0 0 -1 0 0 -1 0 0 -1 0 0 -1 0 0 -1 0 0 -1 0 0 -1 0 0 -1 0 0 -1 0 0 -1 0 0 -1 0 0 -1 0 0 -1 0 0 -1 0 0 -1 0 0 -1 0 0 -1 0 0 -1 0 0 -1 0 0 -1 0 0 -1 0 0 -1 0 0 -1 0 0 -1 0 0 -1 0 0 -1 0 0 -1 0 0 -1 0 0 -1 0 0 -1 0 0 -1 0 0 -1 0 0 -1 0 0 -1 0 0 -1 0 0 -1 0 0 -1 0 0 -1 0 0 -1 0 0 -1 0 0 -1 0 0 -1 0 0 -1 0 0 -1 0 0 -1 0 0 -1 0 0 -1 0 0 -1 0 0 -1 0 0 -1 0 0 -1 0 0 -1 0 0 -1 0 0 -1 0 0 0 -1 0 0 -1 0 0 -1 0 0 -1 0 0 -1 0 0 -1 1 0 0 1 0 0 1 0 0 1 0 0 -1 0 0 -1 0 0 -1 0 0 -1 0 0 0 0 1 0 0 1 0 0 1 0 0 1 0 0 1 0 0 1 0 0 1 0 0 1 0 1 0 0 1 0 0 -1 0 0 -1 0 0 -1 0 0 -1 0 0 -1 0 0 -1 0 0 -1 0 0 -1 0 0 -1 0 0 -1 0 0 -1 0 0 -1 0 0 -1 0 0 -1 0 0 -1 0 0 -1 0 0 -1 0 0 -1 0 0 -1 0 0 -1 0 0 -1 0 0 -1 0 0 -1 0 0 -1 0 0 -1 0 0 -1 0 0 -1 0 0 -1 0 0 -1 0 0 -1 0 0 -1 0 0 -1 0 0 -1 0 0 -1 0 0 -1 0 0 -1 0 0 -1 0 0 -1 0 0 -1 0 0 -1 0 0 -1 0 0 -1 0 0 0 -1 0 0 -1 1 0 0 1 0 0 0 0 1 0 0 1 0 1 0 0 1 0 0 1 0 0 1 0 0 1 0 0 1 0 1 0 0 1 0 0 -1 0 0 -1 0 0 1 0 0 1 0 0 0 0 1 0 0 1 0 0 1 0 0 1 0 0 1 0 0 1 0 0 1 0 0 1 0 0 1 0 0 1 0 0 1 0 0 1 0 0 1 0 0 1 0 0 1 0 0 1 0 0 1 0 0 1 0 0 1 0 0 1 0 0 1 0 0 1 0 0 1 0 0 1 0 0 1 0 0 1 0 0 1 0 0 1 0 0 1 0 0 1 0 0 1 0 0 1 0 0 1 0 0 1 0 0 1 0 0 1 0 0 -1 0 0 -1 0 0 -1 0 0 -1 0 0 -1 0 0 -1 0 0 -1 0 0 -1 0 0 -1 0 0 -1 0 0 -1 0 0 -1 0 0 -1 0 0 -1 0 0 -1 0 0 -1 0 0 -1 0 0 -1 0 0 -1 0 0 -1 0 0 -1 0 0 -1 0 0 -1 0 0 -1 0 0 -1 0 0 -1 0 0 -1 0 0 -1 0 0 -1 0 0 -1 0 0 -1 0 0 -1 0 0 -1 0 0 -1 0 0 -1 0 0 -1 0 0 -1 0 0 -1 0 0 -1 0 0 -1 0.9961948 0.08715558 0 0.9659254 0.2588208 0 0.9659254 0.2588208 0 0.9063082 0.4226174 0 0.9063082 0.4226174 0 0.8191526 0.5735756 0 0.8191526 0.5735756 0 0.7071051 0.7071086 0 0.7071051 0.7071086 0 0.5735773 0.8191515 0 0.5735773 0.8191515 0 0.4226191 0.9063075 0 0.4226191 0.9063075 0 0.2588175 0.9659262 0 0.2588175 0.9659262 0 0.08715587 0.9961947 0 0.08715587 0.9961947 0 -0.08715587 0.9961947 0 -0.08715587 0.9961947 0 -0.2588167 0.9659265 0 -0.2588167 0.9659265 0 -0.4226204 0.9063068 0 -0.4226204 0.9063068 0 -0.5735773 0.8191515 0 -0.5735773 0.8191515 0 -0.7071051 0.7071086 0 -0.7071051 0.7071086 0 -0.8191526 0.5735756 0 -0.8191526 0.5735756 0 -0.9063068 0.4226204 0 -0.9063068 0.4226204 0 -0.9659262 0.2588175 0 -0.9659262 0.2588175 0 -0.9961948 0.08715558 0 -0.9961948 0.08715558 0 -0.9961947 -0.08715587 0 -0.9961947 -0.08715587 0 -0.9659262 -0.2588175 0 -0.9659262 -0.2588175 0 -0.9063072 -0.4226197 0 -0.9063072 -0.4226197 0 -0.8191521 -0.5735765 0 -0.8191521 -0.5735765 0 -0.7071068 -0.7071068 0 -0.7071068 -0.7071068 0 -0.5735761 -0.8191523 0 -0.5735761 -0.8191523 0 -0.4226189 -0.9063075 0 -0.4226189 -0.9063075 0 -0.2588183 -0.9659261 0 -0.2588183 -0.9659261 0 -0.08715587 -0.9961947 0 -0.08715587 -0.9961947 0 0.08715587 -0.9961947 0 0.08715587 -0.9961947 0 0.2588192 -0.9659258 0 0.2588192 -0.9659258 0 0.4226176 -0.9063081 0 0.4226176 -0.9063081 0 0.5735761 -0.8191523 0 0.5735761 -0.8191523 0 0.7071068 -0.7071068 0 0.7071068 -0.7071068 0 0.8191521 -0.5735765 0 0.8191521 -0.5735765 0 0.9063085 -0.4226168 0 0.9063085 -0.4226168 0 0.9659254 -0.2588208 0 0.9659254 -0.2588208 0 0.9961947 -0.08715587 0 0.9961947 -0.08715587 0 0.9961948 0.08715558 0 0 1 0 0 1 0 0 1 0 0 1 0 0 1 0 0 1 0 0 1 0 0 1 0 0 1 0 0 1 0 0 1 0 0 1 0 0 1 0 0 1 0 0 1 0 0 1 0 0 1 0 0 1 0 0 1 0 0 1 0 -0.9569063 -0.1148928 0.2667019 0.9961947 0 -0.08715558 -0.9659259 0 0.2588187 -0.9063078 0 0.4226185 -0.9063078 0 0.4226185 -0.8191521 0 0.5735764 -0.8191521 0 0.5735764 -0.7071067 0 0.7071068 -0.7071067 0 0.7071068 -0.5735764 0 0.8191521 -0.5735764 0 0.8191521 -0.4226185 0 0.9063078 -0.4226185 0 0.9063078 -0.258819 0 0.9659259 -0.258819 0 0.9659259 -0.08715558 0 0.9961947 -0.08715558 0 0.9961947 0.08715564 0 0.9961947 0.08715564 0 0.9961947 0.258819 0 0.9659259 0.258819 0 0.9659259 0.4226185 0 0.9063078 0.4226185 0 0.9063078 0.5735763 0 0.8191522 0.5735763 0 0.8191522 0.7071068 0 0.7071068 0.7071068 0 0.7071068 0.8191522 0 0.5735762 0.8191522 0 0.5735762 0.9063075 0 0.422619 0.9063075 0 0.422619 0.9659259 0 0.2588188 0.9659259 0 0.2588188 0.9961947 0 0.08715564 0.9961947 0 0.08715564 0.9961947 0 -0.08715558 0.9961947 0 -0.08715558 0.9659259 0 -0.2588189 0.9659259 0 -0.2588189 0.9063074 0 -0.422619 0.9063074 0 -0.422619 0.8191524 0 -0.5735761 0.8191524 0 -0.5735761 0.7071068 0 -0.7071068 0.7071068 0 -0.7071068 0.5735761 0 -0.8191522 0.5735761 0 -0.8191522 0.4226183 0 -0.9063077 0.4226183 0 -0.9063077 0.2588191 0 -0.9659258 0.2588191 0 -0.9659258 0.08715575 0 -0.9961947 0.08715575 0 -0.9961947 -0.08715569 0 -0.9961947 -0.08715569 0 -0.9961947 -0.2588191 0 -0.9659258 -0.2588191 0 -0.9659258 -0.4226183 0 -0.9063077 -0.4226183 0 -0.9063077 -0.5735762 0 -0.8191522 -0.5735762 0 -0.8191522 -0.7071068 0 -0.7071068 -0.7071068 0 -0.7071068 -0.8191522 0 -0.5735763 -0.8191522 0 -0.5735763 -0.9063077 0 -0.4226184 -0.9063077 0 -0.4226184 -0.9659259 0 -0.2588188 -0.9659259 0 -0.2588188 -0.9961947 0 -0.08715552 -0.9961947 0 -0.08715552 -0.9961947 0 0.08715558 -0.9961947 0 0.08715558 -0.9830193 0 0.1835024 -0.9830192 0 0.1835024 0 -1 0 0 -1 0 0 -1 0 0 -1 0 0 -1 0 0 -1 0 0 -1 0 0 -1 0 0 -1 0 0 -1 0 0 -1 0 0 -1 0 0 -1 0 0 -1 0 0 -1 0 0 -1 0 0 -1 0 0 -1 0 0 -1 0 0 -1 0 0 -1 0 0 -1 0 0 -1 0 0 -1 0 0 -1 0 0 -1 0 0 -1 0 0 -1 0 0 -1 0 0 -1 0 0 -1 0 0 -1 0 0 -1 0 0 -1 0 0 -1 0 0 -1 0 0 1 0 0 1 0 0 1 0 0 1 0 0 1 0 0 1 0 0 1 0 0 1 0 0 1 0 0 1 0 0 1 0 0 1 0 0 1 0 0 1 0 0 1 0 0 1 0 0 1 0 0 1 0 0 1 0 0 1 0 0.9830172 0 0.1835137 0.9609009 -0.1018669 0.2574737 0.9632853 0 0.26848 0.9063075 0 0.422619 0.9063075 0 0.422619 0.8191528 0 0.5735753 0.8191528 0 0.5735753 0.7071052 0 0.7071084 0.7071052 0 0.7071084 0.5735775 0 0.8191513 0.5735775 0 0.8191513 0.4226188 0 0.9063076 0.4226188 0 0.9063076 0.2588185 0 0.965926 0.2588185 0 0.965926 0.08715569 0 0.9961947 0.08715569 0 0.9961947 -0.08715569 0 0.9961947 -0.08715569 0 0.9961947 -0.2588185 0 0.965926 -0.2588185 0 0.965926 -0.4226188 0 0.9063076 -0.4226188 0 0.9063076 -0.5735763 0 0.8191522 -0.5735763 0 0.8191522 -0.7071078 0 0.7071058 -0.7071078 0 0.7071058 -0.8191516 0 0.5735771 -0.8191516 0 0.5735771 -0.9063075 0 0.422619 -0.9063075 0 0.422619 -0.9659256 0 0.2588201 -0.9659256 0 0.2588201 -0.9961948 0 0.08715432 -0.9961948 0 0.08715432 -0.9961948 0 -0.08715426 0.9830172 0 0.1835137 0.9961948 0 0.08715432 0.9961948 0 0.08715432 0.9961948 0 -0.08715426 0.9961948 0 -0.08715426 0.9659255 0 -0.2588201 0.9659255 0 -0.2588201 0.9063074 0 -0.422619 0.9063074 0 -0.422619 0.819153 0 -0.5735752 0.819153 0 -0.5735752 0.7071052 0 -0.7071085 0.7071052 0 -0.7071085 0.5735774 0 -0.8191515 0.5735774 0 -0.8191515 0.4226186 0 -0.9063076 0.4226186 0 -0.9063076 0.2588186 0 -0.9659259 0.2588186 0 -0.9659259 0.08715581 0 -0.9961947 0.08715581 0 -0.9961947 -0.08715581 0 -0.9961947 -0.08715581 0 -0.9961947 -0.2588186 0 -0.9659259 -0.2588186 0 -0.9659259 -0.4226186 0 -0.9063076 -0.4226186 0 -0.9063076 -0.5735761 0 -0.8191522 -0.5735761 0 -0.8191522 -0.7071079 0 -0.7071058 -0.7071079 0 -0.7071058 -0.8191518 0 -0.573577 -0.8191518 0 -0.573577 -0.9063074 0 -0.422619 -0.9063074 0 -0.422619 -0.9659255 0 -0.2588201 -0.9659255 0 -0.2588201 -0.9961948 0 -0.08715426 -0.9961948 0 -0.08715426 0 -1 0 0 -1 0 0 -1 0 0 -1 0 0 -1 0 0 -1 0 0 -1 0 0 -1 0 0 -1 0 0 -1 0 0 -1 0 0 -1 0 0 -1 0 0 -1 0 0 -1 0 0 -1 0 0 -1 0 0 -1 0 0 -1 0 0 -1 0 0 -1 0 0 -1 0 0 -1 0 0 -1 0 0 -1 0 0 -1 0 0 -1 0 0 -1 0 0 -1 0 0 -1 0 0 -1 0 0 -1 0 0 -1 0 0 -1 0 0 -1 0 0 -1 0</float_array>
          <technique_common>
            <accessor source="#SimplifiedModel-mesh-normals-array" count="974" stride="3">
              <param name="X" type="float"/>
              <param name="Y" type="float"/>
              <param name="Z" type="float"/>
            </accessor>
          </technique_common>
        </source>
        <vertices id="SimplifiedModel-mesh-vertices">
          <input semantic="POSITION" source="#SimplifiedModel-mesh-positions"/>
        </vertices>
        <triangles count="974">
          <input semantic="VERTEX" source="#SimplifiedModel-mesh-vertices" offset="0"/>
          <input semantic="NORMAL" source="#SimplifiedModel-mesh-normals" offset="1"/>
          <p>0 0 1 0 2 0 2 1 1 1 3 1 2 2 3 2 4 2 4 3 3 3 5 3 4 4 5 4 6 4 6 5 5 5 7 5 6 6 7 6 8 6 8 7 7 7 9 7 8 8 9 8 10 8 10 9 9 9 11 9 10 10 11 10 12 10 12 11 11 11 13 11 12 12 13 12 14 12 14 13 13 13 15 13 14 14 15 14 16 14 16 15 15 15 17 15 16 16 17 16 18 16 18 17 17 17 19 17 18 18 19 18 20 18 20 19 19 19 21 19 20 20 21 20 22 20 22 21 21 21 23 21 22 22 23 22 24 22 24 23 23 23 25 23 24 24 25 24 26 24 26 25 25 25 27 25 26 26 27 26 28 26 28 27 27 27 29 27 28 28 29 28 30 28 30 29 29 29 31 29 30 30 31 30 32 30 32 31 31 31 33 31 32 32 33 32 34 32 34 33 33 33 35 33 34 34 35 34 36 34 36 35 35 35 37 35 36 36 37 36 38 36 38 37 37 37 39 37 38 38 39 38 40 38 40 39 39 39 41 39 40 40 41 40 42 40 42 41 41 41 43 41 42 42 43 42 44 42 44 43 43 43 45 43 44 44 45 44 46 44 46 45 45 45 47 45 46 46 47 46 48 46 48 47 47 47 49 47 48 48 49 48 50 48 50 49 49 49 51 49 50 50 51 50 52 50 52 51 51 51 53 51 52 52 53 52 54 52 54 53 53 53 55 53 54 54 55 54 56 54 56 55 55 55 57 55 56 56 57 56 58 56 58 57 57 57 59 57 58 58 59 58 60 58 60 59 59 59 61 59 60 60 61 60 62 60 62 61 61 61 63 61 62 62 63 62 64 62 64 63 63 63 65 63 64 64 65 64 66 64 66 65 65 65 67 65 66 66 67 66 68 66 68 67 67 67 69 67 68 68 69 68 70 68 70 69 69 69 71 69 70 70 71 70 72 70 72 71 71 71 73 71 72 72 73 72 74 72 74 73 73 73 75 73 74 74 75 74 76 74 76 75 75 75 77 75 76 76 77 76 78 76 78 77 77 77 79 77 78 78 79 78 80 78 80 79 79 79 81 79 80 80 81 80 82 80 82 81 81 81 83 81 82 82 83 82 84 82 84 83 83 83 85 83 84 84 85 84 86 84 86 85 85 85 87 85 86 86 87 86 88 86 88 87 87 87 89 87 88 88 89 88 90 88 90 89 89 89 91 89 90 90 91 90 92 90 92 91 91 91 93 91 92 92 93 92 94 92 94 93 93 93 95 93 94 94 95 94 96 94 96 95 95 95 97 95 96 96 97 96 98 96 98 97 97 97 99 97 98 98 99 98 100 98 100 99 99 99 101 99 100 100 101 100 102 100 102 101 101 101 103 101 102 102 103 102 104 102 104 103 103 103 105 103 104 104 105 104 106 104 106 105 105 105 107 105 106 106 107 106 108 106 108 107 107 107 109 107 108 108 109 108 110 108 110 109 109 109 111 109 110 110 111 110 112 110 112 111 111 111 113 111 112 112 113 112 114 112 114 113 113 113 115 113 114 114 115 114 116 114 116 115 115 115 117 115 116 116 117 116 118 116 118 117 117 117 119 117 118 118 119 118 0 118 0 119 119 119 1 119 63 120 61 120 120 120 120 121 61 121 59 121 120 122 59 122 57 122 69 123 67 123 120 123 120 124 67 124 65 124 120 125 65 125 63 125 75 126 73 126 120 126 120 127 73 127 71 127 120 128 71 128 69 128 81 129 79 129 120 129 120 130 79 130 77 130 120 131 77 131 75 131 87 132 85 132 120 132 120 133 85 133 83 133 120 134 83 134 81 134 93 135 91 135 120 135 120 136 91 136 89 136 120 137 89 137 87 137 99 138 97 138 120 138 120 139 97 139 95 139 120 140 95 140 93 140 105 141 103 141 120 141 120 142 103 142 101 142 120 143 101 143 99 143 111 144 109 144 120 144 120 145 109 145 107 145 120 146 107 146 105 146 117 147 115 147 120 147 120 148 115 148 113 148 120 149 113 149 111 149 3 150 1 150 120 150 120 151 1 151 119 151 120 152 119 152 117 152 9 153 7 153 120 153 120 154 7 154 5 154 120 155 5 155 3 155 15 156 13 156 120 156 120 157 13 157 11 157 120 158 11 158 9 158 21 159 19 159 120 159 120 160 19 160 17 160 120 161 17 161 15 161 27 162 25 162 120 162 120 163 25 163 23 163 120 164 23 164 21 164 33 165 31 165 120 165 120 166 31 166 29 166 120 167 29 167 27 167 39 168 37 168 120 168 120 169 37 169 35 169 120 170 35 170 33 170 45 171 43 171 120 171 120 172 43 172 41 172 120 173 41 173 39 173 51 174 49 174 120 174 120 175 49 175 47 175 120 176 47 176 45 176 57 177 55 177 120 177 120 178 55 178 53 178 120 179 53 179 51 179 56 180 58 180 121 180 121 181 58 181 60 181 121 182 60 182 62 182 50 183 52 183 121 183 121 184 52 184 54 184 121 185 54 185 56 185 44 186 46 186 121 186 121 187 46 187 48 187 121 188 48 188 50 188 38 189 40 189 121 189 121 190 40 190 42 190 121 191 42 191 44 191 32 192 34 192 121 192 121 193 34 193 36 193 121 194 36 194 38 194 26 195 28 195 121 195 121 196 28 196 30 196 121 197 30 197 32 197 20 198 22 198 121 198 121 199 22 199 24 199 121 200 24 200 26 200 14 201 16 201 121 201 121 202 16 202 18 202 121 203 18 203 20 203 8 204 10 204 121 204 121 205 10 205 12 205 121 206 12 206 14 206 2 207 4 207 121 207 121 208 4 208 6 208 121 209 6 209 8 209 116 210 118 210 121 210 121 211 118 211 0 211 121 212 0 212 2 212 110 213 112 213 121 213 121 214 112 214 114 214 121 215 114 215 116 215 104 216 106 216 121 216 121 217 106 217 108 217 121 218 108 218 110 218 98 219 100 219 121 219 121 220 100 220 102 220 121 221 102 221 104 221 92 222 94 222 121 222 121 223 94 223 96 223 121 224 96 224 98 224 86 225 88 225 121 225 121 226 88 226 90 226 121 227 90 227 92 227 80 228 82 228 121 228 121 229 82 229 84 229 121 230 84 230 86 230 74 231 76 231 121 231 121 232 76 232 78 232 121 233 78 233 80 233 68 234 70 234 121 234 121 235 70 235 72 235 121 236 72 236 74 236 62 237 64 237 121 237 121 238 64 238 66 238 121 239 66 239 68 239 122 240 123 240 124 240 124 241 123 241 125 241 124 242 125 242 126 242 126 243 125 243 127 243 126 244 127 244 128 244 128 245 127 245 129 245 128 246 129 246 130 246 130 247 129 247 131 247 130 248 131 248 132 248 132 249 131 249 133 249 132 250 133 250 134 250 134 251 133 251 135 251 134 252 135 252 136 252 136 253 135 253 137 253 136 254 137 254 138 254 138 255 137 255 139 255 138 256 139 256 140 256 140 257 139 257 141 257 140 258 141 258 142 258 142 259 141 259 143 259 142 260 143 260 144 260 144 261 143 261 145 261 144 262 145 262 146 262 146 263 145 263 147 263 146 264 147 264 148 264 148 265 147 265 149 265 148 266 149 266 150 266 150 267 149 267 151 267 150 268 151 268 152 268 152 269 151 269 153 269 152 270 153 270 154 270 154 271 153 271 155 271 154 272 155 272 156 272 156 273 155 273 157 273 156 274 157 274 158 274 158 275 157 275 159 275 158 276 159 276 160 276 160 277 159 277 161 277 160 278 161 278 162 278 162 279 161 279 163 279 162 280 163 280 164 280 164 281 163 281 165 281 164 282 165 282 166 282 166 283 165 283 167 283 166 284 167 284 168 284 168 285 167 285 169 285 168 286 169 286 170 286 170 287 169 287 171 287 170 288 171 288 172 288 172 289 171 289 173 289 172 290 173 290 174 290 174 291 173 291 175 291 174 292 175 292 176 292 176 293 175 293 177 293 176 294 177 294 178 294 178 295 177 295 179 295 178 296 179 296 180 296 180 297 179 297 181 297 180 298 181 298 182 298 182 299 181 299 183 299 182 300 183 300 184 300 184 301 183 301 185 301 184 302 185 302 186 302 186 303 185 303 187 303 186 304 187 304 188 304 188 305 187 305 189 305 188 306 189 306 190 306 190 307 189 307 191 307 190 308 191 308 192 308 192 309 191 309 193 309 192 310 193 310 194 310 194 311 193 311 195 311 194 312 195 312 196 312 196 313 195 313 197 313 196 314 197 314 198 314 198 315 197 315 199 315 198 316 199 316 200 316 200 317 199 317 201 317 200 318 201 318 202 318 202 319 201 319 203 319 202 320 203 320 204 320 204 321 203 321 205 321 204 322 205 322 206 322 206 323 205 323 207 323 206 324 207 324 208 324 208 325 207 325 209 325 208 326 209 326 210 326 210 327 209 327 211 327 210 328 211 328 212 328 212 329 211 329 213 329 212 330 213 330 214 330 214 331 213 331 215 331 214 332 215 332 216 332 216 333 215 333 217 333 216 334 217 334 218 334 218 335 217 335 219 335 218 336 219 336 220 336 220 337 219 337 221 337 220 338 221 338 222 338 222 339 221 339 223 339 222 340 223 340 224 340 224 341 223 341 225 341 224 342 225 342 226 342 226 343 225 343 227 343 226 344 227 344 228 344 228 345 227 345 229 345 228 346 229 346 230 346 230 347 229 347 231 347 230 348 231 348 232 348 232 349 231 349 233 349 232 350 233 350 234 350 234 351 233 351 235 351 234 352 235 352 236 352 236 353 235 353 237 353 236 354 237 354 238 354 238 355 237 355 239 355 238 356 239 356 240 356 240 357 239 357 241 357 240 358 241 358 122 358 122 359 241 359 123 359 185 360 183 360 242 360 242 361 183 361 181 361 242 362 181 362 179 362 191 363 189 363 242 363 242 364 189 364 187 364 242 365 187 365 185 365 197 366 195 366 242 366 242 367 195 367 193 367 242 368 193 368 191 368 203 369 201 369 242 369 242 370 201 370 199 370 242 371 199 371 197 371 209 372 207 372 242 372 242 373 207 373 205 373 242 374 205 374 203 374 215 375 213 375 242 375 242 376 213 376 211 376 242 377 211 377 209 377 221 378 219 378 242 378 242 379 219 379 217 379 242 380 217 380 215 380 227 381 225 381 242 381 242 382 225 382 223 382 242 383 223 383 221 383 233 384 231 384 242 384 242 385 231 385 229 385 242 386 229 386 227 386 239 387 237 387 242 387 242 388 237 388 235 388 242 389 235 389 233 389 125 390 123 390 242 390 242 391 123 391 241 391 242 392 241 392 239 392 131 393 129 393 242 393 242 394 129 394 127 394 242 395 127 395 125 395 137 396 135 396 242 396 242 397 135 397 133 397 242 398 133 398 131 398 143 399 141 399 242 399 242 400 141 400 139 400 242 401 139 401 137 401 149 402 147 402 242 402 242 403 147 403 145 403 242 404 145 404 143 404 155 405 153 405 242 405 242 406 153 406 151 406 242 407 151 407 149 407 161 408 159 408 242 408 242 409 159 409 157 409 242 410 157 410 155 410 167 411 165 411 242 411 242 412 165 412 163 412 242 413 163 413 161 413 173 414 171 414 242 414 242 415 171 415 169 415 242 416 169 416 167 416 179 417 177 417 242 417 242 418 177 418 175 418 242 419 175 419 173 419 178 420 180 420 243 420 243 421 180 421 182 421 243 422 182 422 184 422 172 423 174 423 243 423 243 424 174 424 176 424 243 425 176 425 178 425 166 426 168 426 243 426 243 427 168 427 170 427 243 428 170 428 172 428 160 429 162 429 243 429 243 430 162 430 164 430 243 431 164 431 166 431 154 432 156 432 243 432 243 433 156 433 158 433 243 434 158 434 160 434 148 435 150 435 243 435 243 436 150 436 152 436 243 437 152 437 154 437 142 438 144 438 243 438 243 439 144 439 146 439 243 440 146 440 148 440 136 441 138 441 243 441 243 442 138 442 140 442 243 443 140 443 142 443 130 444 132 444 243 444 243 445 132 445 134 445 243 446 134 446 136 446 124 447 126 447 243 447 243 448 126 448 128 448 243 449 128 449 130 449 238 450 240 450 243 450 243 451 240 451 122 451 243 452 122 452 124 452 232 453 234 453 243 453 243 454 234 454 236 454 243 455 236 455 238 455 226 456 228 456 243 456 243 457 228 457 230 457 243 458 230 458 232 458 220 459 222 459 243 459 243 460 222 460 224 460 243 461 224 461 226 461 214 462 216 462 243 462 243 463 216 463 218 463 243 464 218 464 220 464 208 465 210 465 243 465 243 466 210 466 212 466 243 467 212 467 214 467 202 468 204 468 243 468 243 469 204 469 206 469 243 470 206 470 208 470 196 471 198 471 243 471 243 472 198 472 200 472 243 473 200 473 202 473 190 474 192 474 243 474 243 475 192 475 194 475 243 476 194 476 196 476 184 477 186 477 243 477 243 478 186 478 188 478 243 479 188 479 190 479 244 480 245 480 246 480 247 481 248 481 249 481 250 482 251 482 249 482 249 483 251 483 244 483 249 484 244 484 247 484 247 485 244 485 246 485 248 486 247 486 252 486 252 487 247 487 253 487 252 488 253 488 254 488 254 489 253 489 255 489 256 490 257 490 258 490 258 491 257 491 259 491 258 492 259 492 245 492 245 493 259 493 246 493 260 494 253 494 261 494 261 495 253 495 259 495 261 496 259 496 262 496 262 497 259 497 257 497 262 498 257 498 263 498 263 499 257 499 255 499 263 500 255 500 260 500 260 501 255 501 253 501 246 502 259 502 247 502 247 503 259 503 253 503 264 504 254 504 255 504 265 505 257 505 266 505 266 506 257 506 256 506 265 507 267 507 257 507 257 508 267 508 268 508 257 509 268 509 269 509 257 510 270 510 271 510 272 511 273 511 255 511 274 512 275 512 255 512 255 513 275 513 276 513 255 514 276 514 264 514 269 515 277 515 257 515 257 516 277 516 278 516 257 517 278 517 279 517 280 518 281 518 270 518 271 519 282 519 257 519 257 520 282 520 283 520 257 521 283 521 255 521 255 522 283 522 284 522 255 523 284 523 272 523 273 524 285 524 255 524 255 525 285 525 286 525 255 526 286 526 274 526 279 527 287 527 257 527 257 528 287 528 288 528 257 529 288 529 270 529 270 530 288 530 289 530 270 531 289 531 280 531 251 532 250 532 290 532 290 533 250 533 291 533 281 534 292 534 270 534 270 535 292 535 293 535 270 536 293 536 290 536 291 537 294 537 290 537 290 538 294 538 295 538 290 539 295 539 270 539 296 540 297 540 298 540 262 541 263 541 299 541 300 542 301 542 299 542 299 543 301 543 296 543 299 544 296 544 262 544 262 545 296 545 298 545 302 546 303 546 299 546 299 547 303 547 300 547 303 548 304 548 300 548 300 549 304 549 301 549 304 550 305 550 301 550 301 551 305 551 296 551 302 552 260 552 261 552 306 553 307 553 305 553 304 554 303 554 305 554 305 555 303 555 302 555 305 556 302 556 306 556 306 557 302 557 261 557 260 558 302 558 263 558 263 559 302 559 299 559 306 560 261 560 298 560 298 561 261 561 262 561 305 562 307 562 296 562 296 563 307 563 297 563 308 564 309 564 310 564 310 565 309 565 311 565 310 566 311 566 312 566 313 567 314 567 310 567 310 568 314 568 315 568 310 569 315 569 308 569 316 570 317 570 310 570 310 571 317 571 318 571 310 572 318 572 313 572 319 573 320 573 310 573 310 574 320 574 321 574 310 575 321 575 316 575 322 576 323 576 310 576 310 577 323 577 324 577 310 578 324 578 319 578 325 579 326 579 310 579 310 580 326 580 327 580 310 581 327 581 322 581 328 582 329 582 310 582 310 583 329 583 330 583 310 584 330 584 325 584 331 585 332 585 310 585 310 586 332 586 333 586 310 587 333 587 328 587 334 588 335 588 310 588 310 589 335 589 336 589 310 590 336 590 331 590 337 591 338 591 310 591 310 592 338 592 339 592 310 593 339 593 334 593 340 594 341 594 310 594 310 595 341 595 342 595 310 596 342 596 337 596 312 597 343 597 310 597 310 598 343 598 344 598 310 599 344 599 340 599 345 600 346 600 298 600 347 601 348 601 298 601 349 602 350 602 297 602 297 603 350 603 351 603 297 604 351 604 352 604 348 605 353 605 298 605 298 606 353 606 354 606 298 607 354 607 345 607 346 608 355 608 298 608 298 609 355 609 356 609 298 610 356 610 306 610 306 611 356 611 357 611 306 612 358 612 359 612 360 613 361 613 307 613 307 614 361 614 362 614 307 615 362 615 363 615 352 616 364 616 297 616 297 617 364 617 365 617 297 618 365 618 298 618 298 619 365 619 366 619 298 620 366 620 347 620 363 621 367 621 307 621 307 622 367 622 368 622 307 623 368 623 369 623 369 624 370 624 307 624 307 625 370 625 371 625 307 626 371 626 297 626 297 627 371 627 372 627 297 628 372 628 349 628 359 629 373 629 306 629 306 630 373 630 374 630 306 631 374 631 307 631 307 632 374 632 375 632 307 633 375 633 360 633 357 634 376 634 306 634 306 635 376 635 377 635 306 636 377 636 378 636 378 637 379 637 306 637 306 638 379 638 380 638 306 639 380 639 358 639 311 640 369 640 312 640 312 641 369 641 368 641 312 642 368 642 343 642 343 643 368 643 367 643 343 644 367 644 344 644 344 645 367 645 363 645 344 646 363 646 340 646 340 647 363 647 362 647 340 648 362 648 341 648 341 649 362 649 361 649 341 650 361 650 342 650 342 651 361 651 360 651 342 652 360 652 337 652 337 653 360 653 375 653 337 654 375 654 338 654 338 655 375 655 374 655 338 656 374 656 339 656 339 657 374 657 373 657 339 658 373 658 334 658 334 659 373 659 359 659 334 660 359 660 335 660 335 661 359 661 358 661 335 662 358 662 336 662 336 663 358 663 380 663 336 664 380 664 331 664 331 665 380 665 379 665 331 666 379 666 332 666 332 667 379 667 378 667 332 668 378 668 333 668 333 669 378 669 377 669 333 670 377 670 328 670 328 671 377 671 376 671 328 672 376 672 329 672 329 673 376 673 357 673 329 674 357 674 330 674 330 675 357 675 356 675 330 676 356 676 325 676 325 677 356 677 355 677 325 678 355 678 326 678 326 679 355 679 346 679 326 680 346 680 327 680 327 681 346 681 345 681 327 682 345 682 322 682 322 683 345 683 354 683 322 684 354 684 323 684 323 685 354 685 353 685 323 686 353 686 324 686 324 687 353 687 348 687 324 688 348 688 319 688 319 689 348 689 347 689 319 690 347 690 320 690 320 691 347 691 366 691 320 692 366 692 321 692 321 693 366 693 365 693 321 694 365 694 316 694 316 695 365 695 364 695 316 696 364 696 317 696 317 697 364 697 352 697 317 698 352 698 318 698 318 699 352 699 351 699 318 700 351 700 313 700 313 701 351 701 350 701 313 702 350 702 314 702 314 703 350 703 349 703 314 704 349 704 315 704 315 705 349 705 372 705 315 706 372 706 308 706 308 707 372 707 371 707 308 708 371 708 309 708 309 709 371 709 370 709 309 710 370 710 311 710 311 711 370 711 369 711 381 712 258 712 245 712 382 713 383 713 384 713 384 714 383 714 244 714 383 715 385 715 244 715 244 716 385 716 386 716 244 717 386 717 387 717 388 718 389 718 390 718 390 719 389 719 391 719 387 720 392 720 244 720 244 721 392 721 393 721 244 722 393 722 245 722 245 723 393 723 394 723 245 724 394 724 381 724 382 725 395 725 383 725 383 726 395 726 396 726 383 727 396 727 397 727 388 728 398 728 389 728 389 729 398 729 383 729 389 730 383 730 399 730 399 731 383 731 397 731 266 732 256 732 400 732 384 733 244 733 251 733 400 734 401 734 266 734 266 735 401 735 402 735 266 736 402 736 265 736 265 737 402 737 403 737 265 738 403 738 267 738 267 739 403 739 404 739 267 740 404 740 268 740 268 741 404 741 405 741 268 742 405 742 269 742 269 743 405 743 406 743 269 744 406 744 277 744 277 745 406 745 407 745 277 746 407 746 278 746 278 747 407 747 408 747 278 748 408 748 279 748 279 749 408 749 409 749 279 750 409 750 287 750 287 751 409 751 410 751 287 752 410 752 288 752 288 753 410 753 411 753 288 754 411 754 289 754 289 755 411 755 412 755 289 756 412 756 280 756 280 757 412 757 413 757 280 758 413 758 281 758 281 759 413 759 414 759 281 760 414 760 292 760 292 761 414 761 415 761 292 762 415 762 293 762 293 763 415 763 416 763 293 764 416 764 290 764 290 765 416 765 417 765 290 766 417 766 251 766 251 767 417 767 418 767 251 768 418 768 384 768 384 769 418 769 419 769 384 770 419 770 382 770 382 771 419 771 420 771 382 772 420 772 395 772 395 773 420 773 421 773 395 774 421 774 396 774 396 775 421 775 422 775 396 776 422 776 397 776 397 777 422 777 423 777 397 778 423 778 399 778 399 779 423 779 424 779 399 780 424 780 389 780 389 781 424 781 425 781 389 782 425 782 391 782 391 783 425 783 426 783 391 784 426 784 390 784 390 785 426 785 427 785 390 786 427 786 388 786 388 787 427 787 428 787 388 788 428 788 398 788 398 789 428 789 429 789 398 790 429 790 383 790 383 791 429 791 430 791 383 792 430 792 385 792 385 793 430 793 431 793 385 794 431 794 386 794 386 795 431 795 432 795 386 796 432 796 387 796 387 797 432 797 433 797 387 798 433 798 392 798 392 799 433 799 434 799 392 800 434 800 393 800 393 801 434 801 435 801 393 802 435 802 394 802 394 803 435 803 400 803 394 804 400 804 381 804 381 805 400 805 256 805 381 806 256 806 258 806 410 807 409 807 436 807 436 808 409 808 408 808 436 809 408 809 407 809 413 810 412 810 436 810 436 811 412 811 411 811 436 812 411 812 410 812 416 813 415 813 436 813 436 814 415 814 414 814 436 815 414 815 413 815 419 816 418 816 436 816 436 817 418 817 417 817 436 818 417 818 416 818 422 819 421 819 436 819 436 820 421 820 420 820 436 821 420 821 419 821 425 822 424 822 436 822 436 823 424 823 423 823 436 824 423 824 422 824 428 825 427 825 436 825 436 826 427 826 426 826 436 827 426 827 425 827 431 828 430 828 436 828 436 829 430 829 429 829 436 830 429 830 428 830 434 831 433 831 436 831 436 832 433 832 432 832 436 833 432 833 431 833 401 834 400 834 436 834 436 835 400 835 435 835 436 836 435 836 434 836 404 837 403 837 436 837 436 838 403 838 402 838 436 839 402 839 401 839 407 840 406 840 436 840 436 841 406 841 405 841 436 842 405 842 404 842 248 843 252 843 437 843 438 844 249 844 439 844 439 845 249 845 248 845 439 846 248 846 440 846 440 847 248 847 437 847 441 848 442 848 443 848 443 849 442 849 444 849 438 850 445 850 249 850 249 851 445 851 446 851 249 852 446 852 447 852 447 853 448 853 249 853 249 854 448 854 443 854 249 855 443 855 449 855 449 856 443 856 444 856 441 857 443 857 450 857 450 858 443 858 451 858 450 859 451 859 452 859 452 860 453 860 450 860 450 861 453 861 454 861 450 862 454 862 455 862 252 863 254 863 456 863 456 864 254 864 457 864 254 865 264 865 457 865 457 866 264 866 276 866 457 867 276 867 458 867 458 868 276 868 275 868 458 869 275 869 459 869 459 870 275 870 274 870 459 871 274 871 460 871 460 872 274 872 286 872 460 873 286 873 461 873 461 874 286 874 285 874 461 875 285 875 462 875 462 876 285 876 273 876 462 877 273 877 463 877 463 878 273 878 272 878 463 879 272 879 464 879 464 880 272 880 284 880 464 881 284 881 465 881 465 882 284 882 283 882 465 883 283 883 466 883 466 884 283 884 282 884 466 885 282 885 467 885 467 886 282 886 271 886 467 887 271 887 468 887 468 888 271 888 270 888 468 889 270 889 469 889 469 890 270 890 295 890 469 891 295 891 470 891 470 892 295 892 294 892 470 893 294 893 471 893 471 894 294 894 291 894 471 895 291 895 472 895 472 896 291 896 250 896 472 897 250 897 473 897 473 898 250 898 474 898 252 899 456 899 437 899 437 900 456 900 475 900 437 901 475 901 440 901 440 902 475 902 476 902 440 903 476 903 439 903 439 904 476 904 477 904 439 905 477 905 438 905 438 906 477 906 478 906 438 907 478 907 445 907 445 908 478 908 479 908 445 909 479 909 446 909 446 910 479 910 480 910 446 911 480 911 447 911 447 912 480 912 481 912 447 913 481 913 448 913 448 914 481 914 482 914 448 915 482 915 443 915 443 916 482 916 483 916 443 917 483 917 451 917 451 918 483 918 484 918 451 919 484 919 452 919 452 920 484 920 485 920 452 921 485 921 453 921 453 922 485 922 486 922 453 923 486 923 454 923 454 924 486 924 487 924 454 925 487 925 455 925 455 926 487 926 488 926 455 927 488 927 450 927 450 928 488 928 489 928 450 929 489 929 441 929 441 930 489 930 490 930 441 931 490 931 442 931 442 932 490 932 491 932 442 933 491 933 444 933 444 934 491 934 474 934 444 935 474 935 449 935 449 936 474 936 250 936 449 937 250 937 249 937 462 938 463 938 492 938 492 939 463 939 464 939 492 940 464 940 465 940 459 941 460 941 492 941 492 942 460 942 461 942 492 943 461 943 462 943 456 944 457 944 492 944 492 945 457 945 458 945 492 946 458 946 459 946 477 947 476 947 492 947 492 948 476 948 475 948 492 949 475 949 456 949 480 950 479 950 492 950 492 951 479 951 478 951 492 952 478 952 477 952 483 953 482 953 492 953 492 954 482 954 481 954 492 955 481 955 480 955 486 956 485 956 492 956 492 957 485 957 484 957 492 958 484 958 483 958 489 959 488 959 492 959 492 960 488 960 487 960 492 961 487 961 486 961 474 962 491 962 492 962 492 963 491 963 490 963 492 964 490 964 489 964 471 965 472 965 492 965 492 966 472 966 473 966 492 967 473 967 474 967 468 968 469 968 492 968 492 969 469 969 470 969 492 970 470 970 471 970 465 971 466 971 492 971 492 972 466 972 467 972 492 973 467 973 468 973</p>
        </triangles>
      </mesh>
    </geometry>
  </library_geometries>
  <library_visual_scenes>
    <visual_scene id="Scene" name="Scene">
      <node id="SimplifiedModel" name="SimplifiedModel" type="NODE">
        <matrix sid="transform">1 0 0 0 0 1 0 0 0 0 1 0 0 0 0 1</matrix>
        <instance_geometry url="#SimplifiedModel-mesh" name="SimplifiedModel"/>
      </node>
      <node id="Camera" name="Camera" type="NODE">
        <matrix sid="transform">0.6859207 -0.3240135 0.6515582 7.358891 0.7276763 0.3054208 -0.6141704 -6.925791 0 0.8953956 0.4452714 4.958309 0 0 0 1</matrix>
        <instance_camera url="#Camera-camera"/>
      </node>
      <node id="Light" name="Light" type="NODE">
        <matrix sid="transform">-0.2908646 -0.7711008 0.5663932 4.076245 0.9551712 -0.1998834 0.2183912 1.005454 -0.05518906 0.6045247 0.7946723 5.903862 0 0 0 1</matrix>
        <instance_light url="#Light-light"/>
      </node>
    </visual_scene>
  </library_visual_scenes>
  <scene>
    <instance_visual_scene url="#Scene"/>
  </scene>
</COLLADA>